# xmcd
#
# Track frame offsets: 
#        150
#        13302
#        25430
#        36511
#        45780
#        57838
#        70160
#        79917
#        91723
#        100455
#        111505
#        120553
#        131262
#        142376
#        152818
#        162524
#        173273
#        186714
#        197089
#        206975
#        218120
#        229985
#        239021
#        249906
#
# Disc length: 3475 seconds
#
# Revision: 0
# Processed by: cddbd v1.5.2PL0 Copyright (c) Steve Scherf et al.
# Submitted via: ExactAudioCopyFreeDBPlugin 1.0
#
DISCID=640d9118
DTITLE=Big Joe Turner - Ten Years Of Hits - Disc-2 (1956-1960)
DYEAR=2013
DGENRE=Blues
TTITLE0=Corrine, Corrina
TTITLE1=Boogie Woogie Country Girl
TTITLE2=Lipstick Powder And Paint
TTITLE3=Rock A While
TTITLE4=Midnight Special Train
TTITLE5=Feelin' Happy
TTITLE6=Red Sails In The Sunset
TTITLE7=After A While
TTITLE8=Love Roller Coaster
TTITLE9=World Of Trouble
TTITLE10=I Need A Girl
TTITLE11=Trouble In Mind
TTITLE12=Teenage Letter
TTITLE13=Wee Baby Blues
TTITLE14=Jump For Joy
TTITLE15=Blues In The Night
TTITLE16=Got You On My Mind
TTITLE17=Love Oh Careless Love
TTITLE18=Tomorrow Night
TTITLE19=Honey Hush
TTITLE20=Chains Of Love
TTITLE21=My Little Honey Dipper
TTITLE22=Sweet Sue
TTITLE23=My Reason For Living
EXTD=
EXTT0=
EXTT1=
EXTT2=
EXTT3=
EXTT4=
EXTT5=
EXTT6=
EXTT7=
EXTT8=
EXTT9=
EXTT10=
EXTT11=
EXTT12=
EXTT13=
EXTT14=
EXTT15=
EXTT16=
EXTT17=
EXTT18=
EXTT19=
EXTT20=
EXTT21=
EXTT22=
EXTT23=
PLAYORDER=
